      <svg
        viewBox="0 0 320 360"
        data-background-color="#ffffff"
        preserveAspectRatio="xMidYMid meet"
        height="200px"
        width="200px"
        xmlns="http://www.w3.org/2000/svg"
        xmlnsXlink="http://www.w3.org/1999/xlink"
      >
        <defs></defs>
        <g id="tight-bounds" transform="matrix(1,0,0,1,0,0)">
          <svg viewBox="0 0 320 360" height="360" width="320">
            <g>
              <svg></svg>
            </g>
            <g>
              <svg viewBox="0 0 320 360" height="360" width="320">
                <g>
                  <path
                    d="M219.58 41.008c0.707 0 6.365 2.829 9.547 3.89-1.061 0.354-3.536-0.707-6.365-1.768 0.707 0 2.122 0.354 3.536 1.06-0.707-0.707-6.011-2.475-6.718-3.182M166.895 30.047c1.061-0.354 13.436 1.414 19.094 1.768 0.354-0.354-0.707-0.354-2.122-0.707 1.768-0.354 5.304 0.707 7.779 1.06-7.425 0.354-15.558-1.768-22.629-1.06-2.475 0-0.707-0.707-2.122-1.061M156.641 30.047c6.365 0 11.315 0 2.121 0.707-1.061-0.354-2.475-0.354-2.121-0.707M256.707 59.395c0.707 0 3.536 3.182 4.95 4.243-0.354 0.354-3.182-2.475-4.596-3.536 0.354 0.354 0 0-0.354-0.707M249.635 54.798c-2.829-2.475-3.889-2.475-4.243-3.889 2.475 1.414 4.243 2.829 4.243 3.889M204.022 32.522c0.354-0.354 1.061 0.354 2.829 0.707-2.122-0.354-1.768 0-1.061 0.707-2.475-0.354-3.182-0.707-2.475-1.414 1.414 0.707 1.768 0.354 0.707 0M103.602 36.765c0-0.354 1.414-1.061 2.475-1.414-1.061 0.707-0.707 1.061 1.061 0.353 0 0.354-2.122 1.061-3.536 1.768 0.707-0.354 1.414-1.414 0-0.707M211.094 28.986c-1.061 0.354-4.95-1.768-8.84-2.475-2.122-0.707 8.486 1.768 8.84 2.475M2.475 203.66c2.122 8.84 0.707 8.486 0 0M2.829 150.621c0.354-1.414 0.707-5.304 1.06-4.95-1.061 8.486-2.829 12.376-3.182 18.74 1.061-5.657-0.354 3.182-0.707 5.304 0.354 2.829 0.354-1.768 1.061-1.06 0.707 1.061-1.414 15.912-0.707 7.779-0.707 7.425 0 15.558 1.414 17.679-1.768 11.315 7.072 36.773 8.84 42.077 0.354 0.354 0-1.768 0.707-0.353 0.707 4.597 3.889 7.779 4.95 12.729 1.061 1.414 5.304 9.193 6.011 10.962 1.414 2.829 2.122 2.475 3.536 5.303 4.243 8.133 10.961 15.912 17.326 23.337 20.508 24.044 51.978 43.845 86.984 50.918 35.006 7.425 71.779 2.122 100.419-11.669 1.768-1.061 1.414-1.414 3.536-2.122 9.901-3.182 21.923-13.436 28.641-17.326 3.182-3.536 11.669-9.547 12.73-13.082 6.011-4.95 12.022-13.083 15.204-18.387 1.768-2.829 3.182-2.829 3.889-4.597-0.354 0 5.657-7.425 7.426-11.668-0.707 0-1.768 2.122-1.768 0 12.729-24.398 19.801-57.282 15.911-79.912 0.707 27.934-6.365 59.05-19.801 78.851-6.011 12.729-18.387 26.519-29.701 36.42-1.768 1.768-3.536 3.889-5.658 5.304-6.718 5.657-14.144 10.254-21.922 14.497-18.387 10.254-38.895 19.094-62.94 19.447 41.37-3.536 78.497-24.398 99.006-49.856-15.558 15.204-22.276 21.215-39.602 30.055-1.414 2.475-13.083 7.425-20.862 9.547 4.597-2.122 14.144-5.657 17.326-8.486-25.812 12.376-54.453 19.448-81.326 15.558 10.254 0 24.751 0.354 38.541-2.121 2.122-0.707 3.182-1.414 5.658-1.768 26.873-6.011 52.685-19.094 71.072-37.481-10.608 9.547-26.519 20.862-36.774 24.398 9.547-5.304 26.873-15.558 32.53-23.337-11.315 11.315-32.53 22.63-45.966 27.58-2.122 0.354 1.414-1.414-2.122 0-4.243 1.061-2.475 1.061-3.536 1.768-16.265 4.597-35.006 8.486-50.563 7.072-2.829-0.354-3.889-1.061-6.365-1.061-2.829-0.354-5.304-0.354-8.486-0.354-12.376-1.414-25.812-6.365-35.713-10.607-5.304-2.475-10.608-4.243-15.912-7.426-4.243-2.475-7.779-5.304-11.314-8.132-13.436-9.901-24.751-19.801-35.36-33.945-19.094-26.519-28.994-59.757-27.58-92.641 1.414-32.884 14.497-65.061 35.359-88.752-1.061 1.061 1.414-2.475 3.536-4.596 0 0.707-0.354 1.768 2.122-0.707 2.122-2.475-0.707-0.707 0.353-2.122 21.923-24.044 60.111-43.492 99.36-44.199 1.414-1.061 3.889-2.475 6.718-1.768 0 0.354-1.768 0.354-1.768 0.354 3.889-0.354 7.425-0.354 9.193 0.353 0.354-0.354-1.414-0.707 0-0.707 2.475 0.707 3.182 0 4.597 0.707-1.061 0-2.122 0-2.829 0.354 8.84 0 14.497 2.122 23.337 2.829-4.597-1.061-5.657-1.061-9.193-2.122 3.889 0.707 5.657 1.414 7.425 1.061-0.707 0-0.354-1.061 0.354-0.707 7.072 1.768 7.779 2.475 15.204 4.95 0.707-0.707-3.182-1.061-4.243-2.122 7.072 2.475 13.436 4.243 17.68 7.072-1.414-1.061-5.657-2.475-8.84-3.889-0.354 0.354 1.061 0.707 1.414 1.414-3.536-1.768-8.486-3.536-13.436-4.243 4.243 1.061 7.072 2.475 8.84 3.182-3.889-0.707-8.84-3.182-14.498-4.243 9.193 2.829 26.519 9.193 37.127 14.851-3.889-2.475-8.486-4.243-10.961-5.657 2.122 0.354 4.597 1.768 4.597 1.06 2.475 1.061 5.657 3.536 7.425 3.89-3.182-2.122-9.547-5.304-11.668-6.365 26.519 12.022 50.21 32.177 65.414 57.989 1.414 2.475 3.536 8.133 5.304 8.84-0.354-1.768-1.768-2.829-3.182-5.657 0.707 0 0.707-1.061 0-2.122-1.414-1.768 0 1.414-1.415-0.354-6.365-11.669-14.144-21.923-26.165-33.237 6.718 6.365 1.768 1.768 0.353-0.354 9.193 8.133 19.801 21.923 24.398 28.995-0.707-1.061-1.061-1.768-0.707-1.768 8.486 14.497 13.79 27.58 19.094 46.32 0.354 0.354 0-1.414 0.707-0.353 3.536 14.851 4.597 27.227 4.243 38.541 2.829-19.094-3.536-48.796-14.851-72.133-1.414-2.829-1.414-0.707-2.829-3.889 0-1.061-1.061-3.182-1.768-4.597-14.144-23.337-31.47-39.956-51.978-53.038 1.414 0.707 4.243 2.829 4.244 2.475-38.188-25.105-82.387-28.641-118.807-20.862-2.475 1.061-3.536 2.122-6.365 3.536 5.304-1.768 8.486-2.122 13.437-3.183 1.061-1.061-4.597 0.354-2.122-0.707 0.354 0.354 4.95-0.707 6.011-0.353 0 0.354-1.414 0.707-1.768 1.06 11.669-2.475 23.691-2.829 33.945-2.121-6.011 0.354-16.972-0.707-20.508 1.061 3.536-0.354 8.486-0.707 11.668-0.354-4.243 0-12.022 0.354-15.558 0.707-0.354-0.354 5.657-1.061 1.768-1.06-1.768 0.354-4.597 0.354-5.657 1.414-30.409 2.829-60.111 18.74-80.973 37.481-4.243 3.536-9.193 7.425-12.375 11.314-7.779 8.84-12.729 17.68-18.387 25.459 3.536-7.425 11.315-18.74 20.508-28.287 9.193-9.547 19.094-17.68 24.398-21.923 0 1.414 8.486-5.304 11.669-7.425-2.122 1.768 1.414-0.707 2.121-0.354 11.315-6.718 20.508-9.193 30.763-13.083-2.475 0.707-4.597 1.414-4.951 1.061 2.475-0.707 3.889-1.414 3.536-1.768-9.901 2.829-25.459 9.547-37.834 16.972 22.276-15.204 50.564-24.398 78.497-24.751 27.934-0.707 55.16 6.365 76.729 17.68 14.497 6.365 28.287 18.033 39.249 29.348 3.182 2.829 0.707-0.707 5.304 4.243-1.414-0.707-2.475-1.414-0.707 0.707 2.829 3.182-0.707-2.475 3.889 3.182-0.354 0-1.768-1.768-1.768-1.061 12.376 10.961 21.923 30.762 27.58 43.846-1.414-5.304-4.95-12.729-7.779-18.033 8.486 15.558 11.315 24.751 14.851 38.541 1.414 1.061-0.707-4.95 0.707-2.121 0.354 2.122 0.707 8.84 2.122 9.9-1.061-6.718-2.829-14.851-4.243-16.265 1.061 0.707-1.768-8.133-3.536-10.254-0.707-5.657-5.657-15.558-9.901-22.984-15.204-29.702-42.431-54.099-72.839-67.536 0-0.707-1.768-1.414-2.476-2.121-30.055-12.729-66.122-16.265-100.773-8.133-35.006 8.486-67.889 28.641-91.227 57.636 1.061-3.536 9.901-10.254 10.255-13.083-10.254 10.961-21.215 25.459-28.641 41.016-7.779 15.558-12.022 31.47-13.79 43.138"
                    fill="#19a44b"
                    data-fill-palette-color="tertiary"
                  ></path>
                </g>
                <g transform="matrix(1,0,0,1,53.7773787063949,90)">
                  <svg
                    viewBox="0 0 212.4452425872102 180"
                    height="180"
                    width="212.4452425872102"
                  >
                    <g>
                      <svg
                        viewBox="0 0 224.00000000000003 189.79008194757938"
                        height="180"
                        width="212.4452425872102"
                      >
                        <g transform="matrix(1,0,0,1,0,141.09704993251344)">
                          <svg
                            viewBox="0 0 224.00000000000003 48.693032015065924"
                            height="48.693032015065924"
                            width="224.00000000000003"
                          >
                            <g>
                              <svg
                                viewBox="0 0 224.00000000000003 48.693032015065924"
                                height="48.693032015065924"
                                width="224.00000000000003"
                              >
                                <g>
                                  <svg
                                    viewBox="0 0 224.00000000000003 48.693032015065924"
                                    height="48.693032015065924"
                                    width="224.00000000000003"
                                  >
                                    <g transform="matrix(1,0,0,1,0,0)">
                                      <svg
                                        width="224.00000000000003"
                                        viewBox="3.25 -36.05 185.83 40.4"
                                        height="48.693032015065924"
                                        data-palette-color="#528265"
                                      >
                                        <path
                                          d="M9.1 4.35L9.1 4.35Q7.4 4.35 5.88 3.9 4.35 3.45 3.25 1.95L3.25 1.95Q3.55 0.35 4.17-2.13 4.8-4.6 5.65-7.53 6.5-10.45 7.43-13.45 8.35-16.45 9.22-19.15 10.1-21.85 10.8-23.88 11.5-25.9 11.85-26.85L11.85-26.85Q12-27.25 12.35-28.05 12.7-28.85 13.23-29.68 13.75-30.5 14.45-31.08 15.15-31.65 16-31.65L16-31.65Q16.8-31.65 17.7-31.05L17.7-31.05Q16.15-27.5 14.58-23.2 13-18.9 11.58-14.35 10.15-9.8 8.97-5.48 7.8-1.15 7 2.4L7 2.4Q7.5 2.55 8.15 2.63 8.8 2.7 9.4 2.7L9.4 2.7Q12.65 2.7 15.6 1.15 18.55-0.4 21.05-3 23.55-5.6 25.45-8.9 27.35-12.2 28.38-15.75 29.4-19.3 29.4-22.6L29.4-22.6Q29.4-26.65 28.05-29.23 26.7-31.8 24.33-33 21.95-34.2 18.85-34.2L18.85-34.2Q15.6-34.2 13-32.98 10.4-31.75 8.93-29.68 7.45-27.6 7.45-24.95L7.45-24.95Q7.45-24.35 7.55-23.8 7.65-23.25 7.85-22.7L7.85-22.7Q5.85-22.7 5-23.6 4.15-24.5 4.15-25.8L4.15-25.8Q4.15-27.55 5.43-29.33 6.7-31.1 8.93-32.63 11.15-34.15 14.1-35.08 17.05-36 20.45-36L20.45-36Q25.25-36 28.13-34.15 31-32.3 32.3-29.15 33.6-26 33.6-22.1L33.6-22.1Q33.6-17.8 32.23-13.85 30.85-9.9 28.45-6.6 26.05-3.3 22.9-0.83 19.75 1.65 16.23 3 12.7 4.35 9.1 4.35ZM37.3 1.45L37.3 1.45Q35.2 1.45 34.15 0.18 33.1-1.1 33.1-2.95L33.1-2.95Q33.1-4.1 33.5-5.85 33.9-7.6 34.62-9.53 35.35-11.45 36.3-13.15 37.25-14.85 38.32-15.93 39.4-17 40.45-17L40.45-17Q41.05-17 41.45-16.65 41.85-16.3 41.85-15.65L41.85-15.65Q41.85-15 41.07-13.68 40.3-12.35 39.25-10.65 38.2-8.95 37.42-7.1 36.65-5.25 36.65-3.55L36.65-3.55Q36.65-1.9 37.25-1.35 37.85-0.8 39-0.8L39-0.8Q40.7-0.8 42.67-2.5 44.65-4.2 46.8-8.45L46.8-8.45 47.45-7.75Q45.8-3.35 43.07-0.95 40.35 1.45 37.3 1.45ZM43.25-21.25L43.25-21.25Q42.35-21.25 41.62-21.68 40.9-22.1 40.9-23.05L40.9-23.05Q40.9-24.25 42.17-25.08 43.45-25.9 44.8-25.9L44.8-25.9Q45.65-25.9 46.2-25.5 46.75-25.1 46.75-24.15L46.75-24.15Q46.75-23.1 45.65-22.18 44.55-21.25 43.25-21.25ZM51.25 2.2L51.25 2.2Q48.1 2.2 46.45 0.5 44.8-1.2 44.8-3.75L44.8-3.75Q44.8-6 45.92-8.47 47.05-10.95 48.95-13.13 50.85-15.3 53.12-16.68 55.4-18.05 57.65-18.05L57.65-18.05Q58.9-18.05 60.02-17.4 61.15-16.75 61.15-14.8L61.15-14.8Q61.15-12.9 60.02-11.23 58.9-9.55 57.07-8.25 55.25-6.95 53.02-6.13 50.8-5.3 48.6-5.1L48.6-5.1Q48.55-4.8 48.5-4.5 48.45-4.2 48.45-3.7L48.45-3.7Q48.45-3.3 48.57-2.63 48.7-1.95 49.07-1.28 49.45-0.6 50.25-0.15 51.05 0.3 52.35 0.3L52.35 0.3Q54.45 0.3 56.57-0.9 58.7-2.1 60.55-4.08 62.4-6.05 63.65-8.45L63.65-8.45 64.5-7.75Q63.15-4.75 61.05-2.53 58.95-0.3 56.42 0.95 53.9 2.2 51.25 2.2ZM49.05-6.65L49.05-6.65Q50.35-6.9 52-7.68 53.65-8.45 55.15-9.63 56.65-10.8 57.62-12.2 58.6-13.6 58.6-15.05L58.6-15.05Q58.6-15.6 58.4-15.85 58.2-16.1 57.7-16.1L57.7-16.1Q56.5-16.1 55.22-15.23 53.95-14.35 52.72-12.98 51.5-11.6 50.55-9.93 49.6-8.25 49.05-6.65ZM66.94 2.3L66.94 2.3Q64.74 2.3 63.47 1.03 62.19-0.25 62.19-2.85L62.19-2.85Q62.19-4.95 62.99-8.05 63.79-11.15 64.99-14.45L64.99-14.45Q64.59-14.55 64.12-14.63 63.64-14.7 63.24-14.9L63.24-14.9 63.24-16.25Q63.89-16.15 64.42-16.1 64.94-16.05 65.54-16L65.54-16Q66.59-18.65 67.82-21.15 69.04-23.65 70.24-25.6 71.44-27.55 72.54-28.7 73.64-29.85 74.44-29.85L74.44-29.85Q74.94-29.85 75.34-29.5 75.74-29.15 75.74-28.5L75.74-28.5Q75.74-27.55 74.72-25.68 73.69-23.8 72.17-21.28 70.64-18.75 69.24-15.85L69.24-15.85Q69.64-15.85 70.07-15.85 70.49-15.85 70.89-15.85L70.89-15.85Q72.89-15.85 74.69-15.93 76.49-16 78.34-16.2L78.34-16.2 78.34-14.8Q75.59-14.5 73.32-14.35 71.04-14.2 69.09-14.2L69.09-14.2Q68.94-14.2 68.77-14.2 68.59-14.2 68.44-14.2L68.44-14.2Q67.34-11.65 66.57-9 65.79-6.35 65.79-3.85L65.79-3.85Q65.79-1.75 66.44-0.88 67.09 0 68.54 0L68.54 0Q71.04 0 73.64-2.3 76.24-4.6 78.14-8.5L78.14-8.5 78.84-8Q77.59-5.1 75.69-2.75 73.79-0.4 71.57 0.95 69.34 2.3 66.94 2.3ZM93.14 4.35L93.14 4.35Q93.44 2.55 93.84 0.73 94.24-1.1 94.81-3.38 95.39-5.65 96.29-8.58 97.19-11.5 98.44-15.45L98.44-15.45Q97.69-15.4 96.84-15.3 95.99-15.2 95.19-15.1L95.19-15.1Q95.19-16.6 96.36-17.4 97.54-18.2 99.49-18.6L99.49-18.6Q99.74-19.4 99.96-20.05 100.19-20.7 100.44-21.5 100.69-22.3 101.11-23.45 101.54-24.6 102.14-26.4 102.74-28.2 103.64-30.85L103.64-30.85Q103.79-31.2 104.04-31.98 104.29-32.75 104.29-33.45L104.29-33.45Q104.29-33.85 104.16-34 104.04-34.15 103.64-34.15L103.64-34.15Q102.54-34.15 101.49-33.23 100.44-32.3 99.59-30.88 98.74-29.45 98.24-27.93 97.74-26.4 97.74-25.25L97.74-25.25Q97.74-24.8 97.81-24.33 97.89-23.85 98.14-23.15L98.14-23.15Q96.19-23.15 95.34-24.05 94.49-24.95 94.49-26.3L94.49-26.3Q94.49-28 95.51-29.7 96.54-31.4 98.14-32.83 99.74-34.25 101.54-35.13 103.34-36 104.84-36L104.84-36Q106.34-36 106.91-35.18 107.49-34.35 107.49-33.35L107.49-33.35Q107.49-32.8 107.36-32.25 107.24-31.7 107.09-31.2L107.09-31.2 103.34-19Q103.99-19.05 104.64-19.05 105.29-19.05 105.99-19.05L105.99-19.05Q108.39-19.05 110.54-18.95 112.69-18.85 114.64-18.65L114.64-18.65Q115.79-22.5 116.71-25.33 117.64-28.15 118.36-30.13 119.09-32.1 119.59-33.3L119.59-33.3Q119.79-33.7 120.16-34.35 120.54-35 121.21-35.52 121.89-36.05 122.89-36.05L122.89-36.05Q122.24-34.25 121.31-31.38 120.39-28.5 119.46-25.13 118.54-21.75 117.64-18.4L117.64-18.4Q118.44-18.4 119.61-18.32 120.79-18.25 121.79-18.25L121.79-18.25Q120.39-16.8 119.24-16.48 118.09-16.15 117.09-16.15L117.09-16.15Q116.59-14 116.16-12.03 115.74-10.05 115.44-8.35L115.44-8.35Q114.74-4.8 114.41-2.23 114.09 0.35 114.09 2L114.09 2Q114.09 2.7 114.16 3.28 114.24 3.85 114.29 4.35L114.29 4.35Q111.94 4.1 111.09 3.15 110.24 2.2 110.24-0.05L110.24-0.05Q110.24-1.25 110.44-2.85 110.64-4.45 111.14-6.45L111.14-6.45Q111.54-8.2 112.24-10.63 112.94-13.05 113.89-16.1L113.89-16.1Q110.84-16.1 108.84-16.05 106.84-16 105.34-15.95 103.84-15.9 102.34-15.75L102.34-15.75Q101.99-14.65 101.56-13.28 101.14-11.9 100.54-10 99.94-8.1 99.11-5.43 98.29-2.75 97.09 1L97.09 1Q96.59 2.8 95.31 3.58 94.04 4.35 93.14 4.35ZM123.74 2.35L123.74 2.35Q122.14 2.35 120.96 1.28 119.79 0.2 119.79-1.95L119.79-1.95Q119.79-3.75 120.59-5.8 121.39-7.85 122.79-9.85 124.19-11.85 125.99-13.5 127.79-15.15 129.81-16.15 131.84-17.15 133.84-17.15L133.84-17.15Q135.94-17.15 137.36-16.07 138.78-15 138.78-13.25L138.78-13.25Q138.78-11.9 137.94-11.35 137.09-10.8 135.84-11L135.84-11Q135.94-11.4 136.01-11.88 136.09-12.35 136.09-12.8L136.09-12.8Q136.09-13.85 135.64-14.65 135.19-15.45 133.89-15.45L133.89-15.45Q132.49-15.45 131.03-14.5 129.59-13.55 128.24-12 126.89-10.45 125.84-8.6 124.79-6.75 124.19-4.95 123.59-3.15 123.59-1.75L123.59-1.75Q123.59-0.05 124.84-0.05L124.84-0.05Q125.99-0.05 127.36-1.15 128.74-2.25 130.16-3.95 131.59-5.65 132.89-7.43 134.19-9.2 135.14-10.55L135.14-10.55Q135.34-10.8 135.49-10.8L135.49-10.8Q135.74-10.75 136.28-10.58 136.84-10.4 137.28-10.1 137.74-9.8 137.74-9.3L137.74-9.3Q137.74-8.8 137.28-8.03 136.84-7.25 136.28-6.3 135.74-5.35 135.28-4.4 134.84-3.45 134.84-2.55L134.84-2.55Q134.84-1.9 135.21-1.28 135.59-0.65 136.44-0.65L136.44-0.65Q137.69-0.65 139.86-2.48 142.04-4.3 144.29-8.45L144.29-8.45 145.09-7.65Q143.94-4.95 142.26-2.9 140.59-0.85 138.74 0.33 136.89 1.5 135.03 1.5L135.03 1.5Q133.03 1.5 132.09 0.28 131.14-0.95 131.03-2.4L131.03-2.4Q131.03-2.55 131.06-2.73 131.09-2.9 131.09-3.05L131.09-3.05Q129.03-0.5 127.34 0.93 125.64 2.35 123.74 2.35ZM152.18 1.3L152.18 1.3Q150.38 1.3 149.28 0.35 148.18-0.6 148.18-2.2L148.18-2.2Q148.18-3.6 148.88-5.23 149.58-6.85 150.31-8.43 151.03-10 151.03-11.25L151.03-11.25Q151.03-12.55 150.21-13.33 149.38-14.1 148.43-14.65L148.43-14.65Q147.28-11.8 145.96-9.2 144.63-6.6 143.78-5.2L143.78-5.2 143.13-6.45Q143.83-7.75 144.98-10.18 146.13-12.6 147.18-15.65L147.18-15.65Q146.68-16.15 146.68-16.95L146.68-16.95Q146.68-18.3 147.51-19.4 148.33-20.5 148.98-20.5L148.98-20.5Q149.53-20.5 149.76-19.88 149.98-19.25 149.98-19L149.98-19Q149.98-18.75 149.73-18.07 149.48-17.4 149.43-17.15L149.43-17.15Q149.43-16.55 150.26-16.03 151.08-15.5 152.11-14.78 153.13-14.05 153.93-13.03 154.73-12 154.73-10.4L154.73-10.4Q154.73-8.9 154.08-7.4 153.43-5.9 152.78-4.55 152.13-3.2 152.13-2.25L152.13-2.25Q152.13-1.45 152.53-1.2 152.93-0.95 153.48-0.95L153.48-0.95Q154.68-0.95 155.98-1.7 157.28-2.45 158.51-3.6 159.73-4.75 160.68-6.03 161.63-7.3 162.13-8.35L162.13-8.35 163.13-7.6Q162.18-5.45 160.43-3.4 158.68-1.35 156.53-0.03 154.38 1.3 152.18 1.3ZM164.33 1.5L164.33 1.5Q163.38 1.5 162.46 1.05 161.53 0.6 160.88-0.4 160.23-1.4 160.23-2.9L160.23-2.9Q160.23-4.55 161.03-6.6 161.83-8.65 163.21-10.7 164.58-12.75 166.38-14.45 168.18-16.15 170.18-17.2 172.18-18.25 174.18-18.25L174.18-18.25Q175.28-18.25 175.91-17.88 176.53-17.5 176.53-16.65L176.53-16.65Q176.53-16.4 176.46-16.15 176.38-15.9 176.13-15.65L176.13-15.65Q175.88-16 175.41-16.13 174.93-16.25 174.33-16.25L174.33-16.25Q172.68-16.25 171.18-15.33 169.68-14.4 168.41-12.9 167.13-11.4 166.21-9.68 165.28-7.95 164.78-6.33 164.28-4.7 164.28-3.55L164.28-3.55Q164.28-2.55 164.71-1.95 165.13-1.35 165.93-1.35L165.93-1.35Q167.28-1.35 169.18-2.98 171.08-4.6 173.06-7.63 175.03-10.65 176.63-14.8L176.63-14.8Q177.73-17.65 178.93-20.63 180.13-23.6 181.33-26.38 182.53-29.15 183.68-31.3 184.83-33.45 185.88-34.73 186.93-36 187.83-36L187.83-36Q188.33-36 188.71-35.6 189.08-35.2 189.08-34.6L189.08-34.6Q189.08-33.8 188.26-31.9 187.43-30 186.13-27.38 184.83-24.75 183.38-21.68 181.93-18.6 180.63-15.4 179.33-12.2 178.51-9.15 177.68-6.1 177.68-3.45L177.68-3.45Q177.68-2.2 177.88-1.68 178.08-1.15 178.73-1.15L178.73-1.15Q179.83-1.15 181.18-2.02 182.53-2.9 183.93-4.58 185.33-6.25 186.48-8.55L186.48-8.55 187.28-7.9Q186.23-5.2 184.56-3.13 182.88-1.05 180.96 0.13 179.03 1.3 177.18 1.3L177.18 1.3Q175.23 1.3 174.46 0.03 173.68-1.25 173.68-2.85L173.68-2.85Q173.68-3.65 173.83-4.67 173.98-5.7 174.23-6.8L174.23-6.8Q172.68-4.4 170.93-2.53 169.18-0.65 167.51 0.43 165.83 1.5 164.33 1.5Z"
                                          opacity="1"
                                          transform="matrix(1,0,0,1,0,0)"
                                          fill="#528265"
                                          class="undefined-text-0"
                                          data-fill-palette-color="primary"
                                          id="text-0"
                                        ></path>
                                      </svg>
                                    </g>
                                  </svg>
                                </g>
                              </svg>
                            </g>
                          </svg>
                        </g>
                        <g transform="matrix(1,0,0,1,52.94673125973199,0)">
                          <svg
                            viewBox="0 0 118.10653748053605 118.10653748053605"
                            height="118.10653748053605"
                            width="118.10653748053605"
                          >
                            <g>
                              <svg></svg>
                            </g>
                            <g id="icon-0">
                              <svg
                                viewBox="0 0 118.10653748053605 118.10653748053605"
                                height="118.10653748053605"
                                width="118.10653748053605"
                              >
                                <g>
                                  <path
                                    d="M0 59.053c0-32.614 26.439-59.053 59.053-59.053 32.614 0 59.053 26.439 59.054 59.053 0 32.614-26.439 59.053-59.054 59.054-32.614 0-59.053-26.439-59.053-59.054zM59.053 113.715c30.189 0 54.662-24.473 54.662-54.662 0-30.189-24.473-54.662-54.662-54.662-30.189 0-54.662 24.473-54.662 54.662 0 30.189 24.473 54.662 54.662 54.662z"
                                    data-fill-palette-color="accent"
                                    fill="#19a44b"
                                    stroke="transparent"
                                  ></path>
                                  <ellipse
                                    rx="58.462736052865345"
                                    ry="58.462736052865345"
                                    cx="59.053268740268024"
                                    cy="59.053268740268024"
                                    fill="#19a44b"
                                    stroke="transparent"
                                    strokeWidth="0"
                                    fillOpacity="1"
                                    data-fill-palette-color="accent"
                                  ></ellipse>
                                </g>
                                <g transform="matrix(1,0,0,1,25.295650985683423,25.295650985683423)">
                                  <svg
                                    viewBox="0 0 67.5152355091692 67.5152355091692"
                                    height="67.5152355091692"
                                    width="67.5152355091692"
                                  >
                                    <g>
                                      <svg
                                        xmlns="http://www.w3.org/2000/svg"
                                        xmlnsXlink="http://www.w3.org/1999/xlink"
                                        version="1.1"
                                        x="0"
                                        y="0"
                                        viewBox="0 0 48 48"
                                        enableBackground="new 0 0 48 48"
                                        xmlSpace="preserve"
                                        height="67.5152355091692"
                                        width="67.5152355091692"
                                        class="icon-fi-0"
                                        data-fill-palette-color="quaternary"
                                        id="fi-0"
                                      >
                                        <g
                                          fill="#ffffff"
                                          data-fill-palette-color="quaternary"
                                        >
                                          <path
                                            d="M36.5 17.7c-1.3 0-2.7 0.3-3.9 0.9-0.1 0-0.1 0-0.2 0.1 0.3-1.2 1.2-3.3 4.2-4.3 0.5-0.2 0.8-0.7 0.6-1.3-0.2-0.5-0.7-0.8-1.3-0.6-3.9 1.3-5.3 4.3-5.7 6.3-0.1 0-0.3-0.1-0.4-0.1-1.3-0.6-2.6-0.9-3.9-0.9-1.4 0-2.8 0.4-4 1v-4.8c0-2.2-1.8-4-4-4h-0.4V5.8c0-0.6-0.4-1-1-1H12V2h2.8c0.6 0 1-0.4 1-1s-0.4-1-1-1H7.2c-0.6 0-1 0.4-1 1s0.4 1 1 1H10v2.8H5.4c-0.6 0-1 0.4-1 1v4.1H4c-2.2 0-4 1.8-4 4V44c0 2.2 1.8 4 4 4h13.9c1.2 0 2.4-0.6 3.1-1.5 1.5 0.9 3.2 1.5 4.9 1.5 1 0 2.1-0.2 3.1-0.6 1.4-0.5 3-0.5 4.3 0 1 0.4 2 0.6 3.1 0.6C42.8 48 48 41.2 48 32.8S42.8 17.7 36.5 17.7zM6.4 6.8h9.2v3.1H6.4V6.8zM2 13.8c0-1.1 0.9-2 2-2h13.9c1.1 0 2 0.9 2 2v6.1c-0.1 0.1-1.5 1.5-1.9 2 0 0.1-0.1 0.1-0.1 0.2H2V13.8zM2 24.1h14.6c-0.1 0.1-0.1 0.3-0.2 0.4-2.3 4.2-1.9 9-1.9 9.3H2V24.1zM17.9 46H4c-1.1 0-2-0.9-2-2v-8.2h12.7c0 0.1 0 0.1 0 0.2 0.1 0.4 0.3 4.8 4.7 9.3C19.1 45.7 18.5 46 17.9 46zM36.5 46c-0.8 0-1.6-0.1-2.4-0.4-0.9-0.3-1.9-0.5-2.9-0.5-1 0-1.9 0.2-2.9 0.5-0.8 0.3-1.6 0.3-2.4 0.4-4.9-0.2-7.4-4.6-7.2-4.6-6.4-13.3 2.6-20.1 2.7-20.2 1.3-1 2.8-1.5 4.5-1.5 1 0 2.1 0.2 3.1 0.7 1.4 0.7 3 0.7 4.4 0 1-0.5 2-0.7 3.1-0.7 5.2 0 9.5 5.9 9.5 13.2S41.7 46 36.5 46z"
                                            fill="#ffffff"
                                            data-fill-palette-color="quaternary"
                                          ></path>
                                          <path
                                            d="M26 21c-4.5 0-8.1 5.3-8.1 11.8 0 0.6 0.4 1 1 1 0.6 0 1-0.4 1-1 0-5.2 2.9-9.8 6.1-9.8 0.6 0 1-0.4 1-1S26.5 21 26 21z"
                                            fill="#ffffff"
                                            data-fill-palette-color="quaternary"
                                          ></path>
                                        </g>
                                      </svg>
                                      <g></g>
                                    </g>
                                  </svg>
                                </g>
                              </svg>
                            </g>
                          </svg>
                        </g>
                        <g></g>
                      </svg>
                    </g>
                  </svg>
                </g>
              </svg>
            </g>
          </svg>
          <rect
            width="320"
            height="360"
            fill="none"
            stroke="none"
            visibility="hidden"
          ></rect>
        </g>
      </svg>